<svg xmlns="http://www.w3.org/2000/svg" width="281.66" height="321.447" viewBox="-4 -4 281.66 321.447" enable-background="new -4 -4 281.66 321.447"><path fill="#fff" d="M140.497 315.448c-53.122 0-99.8-17.705-113.512-43.058l-.24-.445v-16.702C13.85 246.89 6.516 237.167 5.47 227.046.512 219.65-2 211.816-2 203.75c0-9.713 3.586-18.992 10.663-27.593V109.81C8.663 48.16 67.803-2 140.497-2c72.69 0 131.832 50.16 131.832 111.812v89.54c1.123 1.486 3.333 5.34 3.333 12.647v12.5c0 11.046-7.4 21.658-21.416 30.74v16.7l-.24.445c-13.71 25.357-60.387 43.063-113.51 43.063z"/><path fill="#010101" d="M140.497 0C212.202 0 270.33 49.165 270.33 109.812v90.27s3.333 3.25 3.333 11.92v12.5c0 10.935-7.873 21.11-21.416 29.647v17.29c-13.076 24.183-58.15 42.01-111.75 42.01-53.604 0-98.673-17.827-111.75-42.008V254.15c-12.778-8.05-20.5-17.566-21.334-27.8C2.637 219.376 0 211.748 0 203.75c0-9.66 3.844-18.785 10.663-26.87v-67.067C10.663 49.165 68.79 0 140.497 0m0-4C104.872-4 71.35 7.758 46.107 29.11 20.67 50.622 6.663 79.283 6.663 109.81v65.637C-.317 184.162-4 193.92-4 203.75c0 8.318 2.534 16.39 7.534 24 1.263 10.313 8.56 20.143 21.212 28.57v16.132l.48.89c6.948 12.85 21.738 23.882 42.77 31.906 20.917 7.98 45.984 12.2 72.498 12.2 26.512 0 51.58-4.22 72.497-12.2 21.032-8.024 35.822-19.06 42.772-31.908l.48-.89V256.32c14.022-9.342 21.417-20.31 21.417-31.818V212c0-7.008-1.98-11.205-3.335-13.26v-88.93c0-30.527-14.01-59.187-39.443-80.702C209.642 7.758 176.122-4 140.497-4z"/><path fill="#262626" d="M270.497 105.458c0-50.694-58.205-91.792-130.002-91.792-71.796 0-130 41.098-130 91.792 0 .35.014.693.02 1.042h-.018v80.833c0 9.57 58.203 17.328 130 17.328 71.8 0 130-7.758 130-17.327V106.5h-.02c.006-.348.02-.693.02-1.042z"/><path d="M46.77 199.34c23.654 3.28 56.9 5.32 93.73 5.32 38.952 0 73.895-2.283 97.724-5.9v-75.465h-.016c.006-.277.016-.554.016-.833 0-23.4-14.295-44.244-36.555-57.68 4.466-7.74 7.116-16.42 7.423-25.62-19.043-9.785-41.947-15.496-66.596-15.496-27.075 0-52.047 6.89-72.105 18.503.818 9.124 3.936 17.683 8.838 25.233-19.897 13.445-32.457 33.127-32.457 55.058 0 .28.01.557.016.834h-.017l-.002 76.046z"/><g fill="#010101"><path d="M157.813 249.833c1.164-1.146 2.186-2.416 3-3.808V228.69c-.814-1.39-1.836-2.66-3-3.807v24.95zM152.645 253.5c1.064-.52 2.064-1.137 3-1.82v-28.643c-.936-.685-1.936-1.3-3-1.822V253.5zM146.645 255.38c1.03-.163 2.03-.397 3-.697v-34.647c-.97-.302-1.97-.533-3-.697v36.04zM136.812 254.682c.97.303 1.973.534 3 .696v-36.043c-1.027.164-2.03.396-3 .697v34.65zM131.646 252.25c.942.617 1.946 1.156 3 1.618v-33.02c-1.054.462-2.058 1-3 1.617v29.785zM125.646 246.025c.816 1.39 1.835 2.66 3 3.807v-24.945c-1.165 1.146-2.184 2.416-3 3.808v17.33z"/></g><path fill="none" stroke="#010101" stroke-miterlimit="10" d="M28.25 254.5c23.74 14.957 65.416 24.853 112.247 24.853 46.83 0 88.512-9.896 112.254-24.853M10.663 191.08S16.583 210 142.917 210c111 0 127.834-18.92 127.834-18.92"/><circle fill="#EC1A35" cx="191.25" cy="233.667" r="6"/><circle fill="#00ABC2" cx="210.122" cy="229.656" r="5.416"/><circle fill="#00A651" cx="234.667" cy="221.215" r="4.024"/><path fill="#EC1A35" d="M79.438 221.69c-4.962 0-9.624 1.3-13.678 3.574l.14.034c-2.104 1.625-9.257 7.6-2.647 9.034 4.382.952 11.7 1.36 17.17 1.535-2.478 4.263-3.9 9.227-3.9 14.53 0 2.38.297 4.688.837 6.897 10.776 2.2 20.81 3.478 28.2 4.203 1.412-3.415 2.194-7.164 2.194-11.1-.003-15.854-12.68-28.708-28.316-28.708z"/><path fill="none" stroke="#010101" stroke-width="2" stroke-miterlimit="10" d="M80.42 235.87c-5.47-.177-12.788-.584-17.17-1.536-6.607-1.438.544-7.41 2.647-9.034-25.27-6.188-45.37-18.518-55.235-33.955L9.75 176.88C2.93 184.966 0 194.09 0 203.75c0 28.685 33.85 52.647 79.08 58.576-1.642-3.634-2.563-7.67-2.563-11.927.003-5.306 1.427-10.27 3.903-14.53z"/><path fill="none" stroke="#010101" stroke-miterlimit="10" d="M24.765 206.434s-15.268 4.44-14.27 23.98M31.52 211.172s-14.35 5.494-13.636 26.683M39.49 215.69s-16.24 9.47-11.336 29.63M48.12 219.604s-15.95 10.908-7.91 32.067M57.437 222.937s-16.02 12.702-6.775 32.842M19.676 202.078s-14.763 1.742-15.52 18.77M63.25 234.333s-6.88 9.6-1.536 24.707M75.118 235.64s-7.887 12.093-1.38 25.727M14.753 196.885S2.403 195.835.545 210M10.663 192.344s-7.95-1.46-10.118 6.2M10.663 187.167s-4.155-1.565-7.95 2.717"/><path fill="none" stroke="#000" stroke-miterlimit="10" d="M262.25 193.417V116.5h-.02c.004-.35.02-.692.02-1.042 0-50.694-53.617-91.792-119.756-91.792-66.14 0-119.753 41.098-119.753 91.792 0 .35.013.693.018 1.042h-.017v78.183"/><path fill="none" stroke="#010101" stroke-miterlimit="10" d="M77.386 257.417c16.546 3.458 37.23 5.583 63.11 5.583 140.496 0 130.254-62.92 130.254-62.92M79.386 262.417c16.546 3.458 37.23 5.583 63.11 5.583 140.496 0 130.254-62.92 130.254-62.92"/><path opacity=".1" fill="#fff" enable-background="new" d="M167.25 98.667s16.334-7 26.666-12.667c0 0 16.334 23.667 19.668 45.667 0 0-16 7-38.668 8 0 0-.666-18-7.666-41z"/></svg>