<?xml version="1.0" encoding="utf-8"?>
<!-- Generator: Adobe Illustrator 17.1.0, SVG Export Plug-In . SVG Version: 6.00 Build 0)  -->
<!DOCTYPE svg PUBLIC "-//W3C//DTD SVG 1.1//EN" "http://www.w3.org/Graphics/SVG/1.1/DTD/svg11.dtd">
<svg version="1.1" id="Layer_1" xmlns="http://www.w3.org/2000/svg" xmlns:xlink="http://www.w3.org/1999/xlink" x="0px" y="0px"
	 viewBox="58.9 225.7 500 384.2" enable-background="new 58.9 225.7 500 384.2" xml:space="preserve">
<polygon fill="#E69E00" points="177.3,556.8 547.2,556.8 362.2,238.8 "/>
<polygon fill="#F72331" points="200.3,513.1 524.2,513.1 362.2,234.6 "/>
<polygon fill="#009995" points="224.2,471.9 500.3,471.9 362.2,234.6 "/>
<polygon fill="#801DE1" points="248.7,430.7 475.8,430.7 362.2,234.6 "/>
<polygon fill="#3B5998" points="277.4,380.5 447.1,380.5 362.2,234.6 "/>
<polygon fill="none" stroke="#E8F4FB" stroke-width="6" points="177.3,555 547.2,555 362.2,237 "/>
<line fill="none" stroke="#E8F4FB" stroke-width="3" x1="68.7" y1="380.6" x2="448.8" y2="380.6"/>
<line fill="none" stroke="#E8F4FB" stroke-width="3" x1="68.7" y1="431.4" x2="475.7" y2="431.4"/>
<line fill="none" stroke="#E8F4FB" stroke-width="3" x1="68.7" y1="472.1" x2="500.8" y2="472.1"/>
<line fill="none" stroke="#E8F4FB" stroke-width="3" x1="68.7" y1="513.3" x2="525.2" y2="513.3"/>
<line fill="none" stroke="#E8F4FB" stroke-width="3" x1="68.8" y1="556.8" x2="549.9" y2="556.8"/>
<text transform="matrix(1 0 0 1 223.1362 601.1133)" fill="#E8F4FB" font-family="'Helvetica'" font-size="21.5156">Mazlow’s Hierarchy of Needs</text>
<text transform="matrix(1 0 0 1 67.8339 552.3905)" fill="#E8F4FB" font-family="'Helvetica'" font-size="14.3438">Physiological</text>
<text transform="matrix(1 0 0 1 67.8339 508.5176)" fill="#E8F4FB" font-family="'Helvetica'" font-size="14.3438">Safety</text>
<text transform="matrix(1 0 0 1 67.8339 467.2501)" fill="#E8F4FB" font-family="'Helvetica'" font-size="14.3438">Love / Belonging</text>
<text transform="matrix(1 0 0 1 67.8339 427.1933)" fill="#E8F4FB" font-family="'Helvetica'" font-size="14.3438">Esteem</text>
<text transform="matrix(1 0 0 1 67.8339 375.2394)" fill="#E8F4FB" font-family="'Helvetica'" font-size="14.3438">Self-Actualization</text>
<text transform="matrix(1 0 0 1 225.0116 537.2462)" fill="#E8F4FB" font-family="'Helvetica'" font-size="10.7578">breathing, food, water, sex, sleep, homeostasis, excretion</text>
<text transform="matrix(1 0 0 1 262.6953 489.2343)" fill="#E8F4FB" font-family="'Helvetica'" font-size="10.7578">security of: body, employment, resources,</text>
<text transform="matrix(1 0 0 1 277.039 502.1435)" fill="#E8F4FB" font-family="'Helvetica'" font-size="10.7578">morality, the family, health, property</text>
<text transform="matrix(1 0 0 1 282.1308 454.7696)" fill="#E8F4FB" font-family="'Helvetica'" font-size="10.7578">friendship, family, sexual intimacy</text>
<text transform="matrix(1 0 0 1 303.9464 396.797)" fill="#E8F4FB" font-family="'Helvetica'" font-size="10.7578">self-esteem, confidence,</text>
<text transform="matrix(1 0 0 1 287.212 409.7061)" fill="#E8F4FB" font-family="'Helvetica'" font-size="10.7578">achievement, respect of others,</text>
<text transform="matrix(1 0 0 1 320.9796 422.6153)" fill="#E8F4FB" font-family="'Helvetica'" font-size="10.7578">respect by others</text>
<text transform="matrix(1 0 0 1 341.9237 301.9688)" fill="#E8F4FB" font-family="'Helvetica'" font-size="10.7578">morality,</text>
<text transform="matrix(1 0 0 1 339.5331 314.8779)" fill="#E8F4FB" font-family="'Helvetica'" font-size="10.7578">creativity,</text>
<text transform="matrix(1 0 0 1 333.2577 327.7876)" fill="#E8F4FB" font-family="'Helvetica'" font-size="10.7578">spontaneity,</text>
<text transform="matrix(1 0 0 1 323.0975 340.6968)" fill="#E8F4FB" font-family="'Helvetica'" font-size="10.7578">problem solving,</text>
<text transform="matrix(1 0 0 1 321.9022 353.6064)" fill="#E8F4FB" font-family="'Helvetica'" font-size="10.7578">lack of prejudice,</text>
<text transform="matrix(1 0 0 1 315.9257 366.5156)" fill="#E8F4FB" font-family="'Helvetica'" font-size="10.7578">acceptance of facts</text>
</svg>
