<?xml version="1.0" encoding="utf-8"?>
<!-- Generator: Adobe Illustrator 17.1.0, SVG Export Plug-In . SVG Version: 6.00 Build 0)  -->
<!DOCTYPE svg PUBLIC "-//W3C//DTD SVG 1.1//EN" "http://www.w3.org/Graphics/SVG/1.1/DTD/svg11.dtd">
<svg version="1.1" id="Layer_1" xmlns="http://www.w3.org/2000/svg" xmlns:xlink="http://www.w3.org/1999/xlink" x="0px" y="0px"
	 viewBox="64.8 391.6 600 461.1" enable-background="new 64.8 391.6 600 461.1" xml:space="preserve">
<polygon fill="#E69E00" points="203.7,792.2 656.5,792.2 430,403 "/>
<polygon fill="#F72331" points="231.9,738.7 628.3,738.7 430,397.8 "/>
<polygon fill="#009995" points="261.1,688.3 599.1,688.3 430,397.8 "/>
<polygon fill="#801DE1" points="291.1,637.8 569.1,637.8 430,397.8 "/>
<polygon fill="#3B5998" points="326.3,576.4 534,576.4 430,397.8 "/>
<polygon fill="none" stroke="#000000" stroke-width="6" points="203.7,790 656.5,790 430,400.8 "/>
<line fill="none" stroke="#000000" stroke-width="3" x1="70.8" y1="576.5" x2="536" y2="576.5"/>
<line fill="none" stroke="#000000" stroke-width="3" x1="70.8" y1="638.7" x2="569" y2="638.7"/>
<line fill="none" stroke="#000000" stroke-width="3" x1="70.8" y1="688.5" x2="599.7" y2="688.5"/>
<line fill="none" stroke="#000000" stroke-width="3" x1="70.8" y1="739" x2="629.6" y2="739"/>
<line fill="none" stroke="#000000" stroke-width="3" x1="70.9" y1="792.2" x2="659.8" y2="792.2"/>
<text transform="matrix(1 0 0 1 259.8355 846.4335)" font-family="'Helvetica'" font-size="26.3351">Mazlow’s Hierarchy of Needs</text>
<text transform="matrix(1 0 0 1 69.7455 786.7977)" font-family="'Helvetica'" font-size="17.5568">Physiological</text>
<text transform="matrix(1 0 0 1 69.7455 733.0966)" font-family="'Helvetica'" font-size="17.5568">Safety</text>
<text transform="matrix(1 0 0 1 69.7455 682.5849)" font-family="'Helvetica'" font-size="17.5568">Love / Belonging</text>
<text transform="matrix(1 0 0 1 69.7455 633.5555)" font-family="'Helvetica'" font-size="17.5568">Esteem</text>
<text transform="matrix(1 0 0 1 69.7455 569.9648)" font-family="'Helvetica'" font-size="17.5568">Self-Actualization</text>
<text transform="matrix(1 0 0 1 262.1309 768.2606)" fill="#E8F4FB" font-family="'Helvetica'" font-size="13.1675">breathing, food, water, sex, sleep, homeostasis, excretion</text>
<text transform="matrix(1 0 0 1 308.2559 709.4941)" fill="#E8F4FB" font-family="'Helvetica'" font-size="13.1675">security of: body, employment, resources,</text>
<text transform="matrix(1 0 0 1 325.8125 725.2949)" fill="#E8F4FB" font-family="'Helvetica'" font-size="13.1675">morality, the family, health, property</text>
<text transform="matrix(1 0 0 1 332.0449 667.3095)" fill="#E8F4FB" font-family="'Helvetica'" font-size="13.1675">friendship, family, sexual intimacy</text>
<text transform="matrix(1 0 0 1 358.7471 596.3505)" fill="#E8F4FB" font-family="'Helvetica'" font-size="13.1675">self-esteem, confidence,</text>
<text transform="matrix(1 0 0 1 338.2646 612.1512)" fill="#E8F4FB" font-family="'Helvetica'" font-size="13.1675">achievement, respect of others,</text>
<text transform="matrix(1 0 0 1 379.5957 627.9521)" fill="#E8F4FB" font-family="'Helvetica'" font-size="13.1675">respect by others</text>
<text transform="matrix(1 0 0 1 405.2315 480.2812)" fill="#E8F4FB" font-family="'Helvetica'" font-size="13.1675">morality,</text>
<text transform="matrix(1 0 0 1 402.3057 496.082)" fill="#E8F4FB" font-family="'Helvetica'" font-size="13.1675">creativity,</text>
<text transform="matrix(1 0 0 1 394.6239 511.8827)" fill="#E8F4FB" font-family="'Helvetica'" font-size="13.1675">spontaneity,</text>
<text transform="matrix(1 0 0 1 382.1884 527.6844)" fill="#E8F4FB" font-family="'Helvetica'" font-size="13.1675">problem solving,</text>
<text transform="matrix(1 0 0 1 380.7246 543.4853)" fill="#E8F4FB" font-family="'Helvetica'" font-size="13.1675">lack of prejudice,</text>
<text transform="matrix(1 0 0 1 373.4101 559.286)" fill="#E8F4FB" font-family="'Helvetica'" font-size="13.1675">acceptance of facts</text>
</svg>
