<?xml version="1.0" encoding="utf-8"?>
<!-- Generator: Adobe Illustrator 17.1.0, SVG Export Plug-In . SVG Version: 6.00 Build 0)  -->
<!DOCTYPE svg PUBLIC "-//W3C//DTD SVG 1.1//EN" "http://www.w3.org/Graphics/SVG/1.1/DTD/svg11.dtd">
<svg version="1.1" id="Layer_1" xmlns="http://www.w3.org/2000/svg" xmlns:xlink="http://www.w3.org/1999/xlink" x="0px" y="0px"
	 viewBox="60.8 549.3 620 476.5" enable-background="new 60.8 549.3 620 476.5" xml:space="preserve">
<polygon fill="#E69E00" points="206.5,961.1 668.3,961.1 437.3,564.1 "/>
<polygon fill="#F72331" points="235.2,906.5 639.6,906.5 437.3,558.8 "/>
<polygon fill="#009995" points="265,855.1 609.8,855.1 437.3,558.8 "/>
<polygon fill="#801DE1" points="295.6,803.6 579.2,803.6 437.3,558.8 "/>
<polygon fill="#3B5998" points="331.5,740.9 543.4,740.9 437.3,558.8 "/>
<polygon fill="none" stroke="#E8F4FB" stroke-width="6" points="206.5,958.8 668.3,958.8 437.3,561.8 "/>
<line fill="none" stroke="#E8F4FB" stroke-width="3" x1="70.9" y1="741" x2="545.4" y2="741"/>
<line fill="none" stroke="#E8F4FB" stroke-width="3" x1="70.9" y1="804.5" x2="579.1" y2="804.5"/>
<line fill="none" stroke="#E8F4FB" stroke-width="3" x1="70.9" y1="855.3" x2="610.4" y2="855.3"/>
<line fill="none" stroke="#E8F4FB" stroke-width="3" x1="70.9" y1="906.8" x2="640.9" y2="906.8"/>
<line fill="none" stroke="#E8F4FB" stroke-width="3" x1="71" y1="961.1" x2="671.7" y2="961.1"/>
<text transform="matrix(1 0 0 1 237.8026 1016.3691)" fill="#E8F4FB" font-family="'Helvetica'" font-size="26.8618">Web Design’s Hierarchy of Needs</text>
<text transform="matrix(1 0 0 1 69.8442 955.541)" fill="#E8F4FB" font-family="'Helvetica'" font-size="17.9079">Physiological</text>
<text transform="matrix(1 0 0 1 69.8442 900.7656)" fill="#E8F4FB" font-family="'Helvetica'" font-size="17.9079">Safety</text>
<text transform="matrix(1 0 0 1 69.8442 849.2432)" fill="#E8F4FB" font-family="'Helvetica'" font-size="17.9079">Love / Belonging</text>
<text transform="matrix(1 0 0 1 69.8442 799.2334)" fill="#E8F4FB" font-family="'Helvetica'" font-size="17.9079">Esteem</text>
<text transform="matrix(1 0 0 1 69.8442 734.3712)" fill="#E8F4FB" font-family="'Helvetica'" font-size="17.9079">Self-Actualization</text>
<text transform="matrix(1 0 0 1 382.4968 936.6328)" fill="#E8F4FB" font-family="'Helvetica'" font-size="13.4308">content, navigation</text>
<text transform="matrix(1 0 0 1 327.6451 884.6904)" fill="#E8F4FB" font-family="'Helvetica'" font-size="13.4308">information architecture, predictability</text>
<text transform="matrix(1 0 0 1 320.169 833.6631)" fill="#E8F4FB" font-family="'Helvetica'" font-size="13.4308">performance, progressive enhancement</text>
<text transform="matrix(1 0 0 1 375.7876 777.2842)" fill="#E8F4FB" font-family="'Helvetica'" font-size="13.4308">content-first branding</text>
<text transform="matrix(1 0 0 1 404.5317 672.8936)" enable-background="new    "><tspan x="0" y="0" fill="#E8F4FB" font-family="'Helvetica'" font-size="13.4308">design flair,</tspan><tspan x="3.4" y="16.1" fill="#E8F4FB" font-family="'Helvetica'" font-size="13.4308">animation,</tspan><tspan x="-17.5" y="32.2" fill="#E8F4FB" font-family="'Helvetica'" font-size="13.4308">interaction, social</tspan></text>
</svg>
